<?xml version="1.0" encoding="UTF-8" standalone="no"?>
<!DOCTYPE svg PUBLIC "-//W3C//DTD SVG 1.1//EN" "http://www.w3.org/Graphics/SVG/1.1/DTD/svg11.dtd">
<!-- Created with Vectornator (http://vectornator.io/) -->
<svg height="100%" stroke-miterlimit="10" style="fill-rule:nonzero;clip-rule:evenodd;stroke-linecap:round;stroke-linejoin:round;" version="1.1" viewBox="0 0 1307.77 536.983" width="100%" xml:space="preserve" xmlns="http://www.w3.org/2000/svg" xmlns:xlink="http://www.w3.org/1999/xlink">
<defs/>
<clipPath id="ArtboardFrame">
<rect height="536.983" width="1307.77" x="0" y="0"/>
</clipPath>
<g clip-path="url(#ArtboardFrame)" id="layer5">
<path d="M81.7812 476.406C81.1626 479.276 79.4257 481.648 77.0938 483.156C76.3202 483.657 75.6111 483.985 74.8438 484.281C74.6678 484.349 74.5142 484.39 74.2812 484.469C71.0976 486.93 67.6836 489.397 63.9062 491.75C62.9109 492.37 56.5032 496.38 56.3125 496.5C48.0976 501.67 42.0069 505.402 36.625 508.5C36.038 509.342 35.4949 510.188 34.6562 511C33.7063 511.919 32.5727 512.842 31.2188 513.812C29.0851 515.342 26.3108 517.067 23.2188 518.844C16.333 522.8 10.4675 525.677 7.15625 526.125C7.13963 526.127 7.11024 526.123 7.09375 526.125C6.88981 526.162 6.73596 526.196 6.59375 526.219C6.05816 526.305 5.5144 526.358 4.96875 526.406C3.80776 526.509 2.71531 526.526 1.5 526.344C1.00341 526.269 0.494968 526.013 0 525.875L0 536.969L1307.78 536.969L1307.78 476.406L1300.69 476.406C1300.26 477.135 1299.77 477.768 1299.22 478.344C1297.32 480.32 1295.72 481.193 1292.53 482.562C1292.34 482.644 1291.7 482.903 1291.69 482.906C1290.96 483.215 1290.57 483.414 1290.28 483.562C1289.61 484.124 1286.05 487.122 1284.81 488.156C1282.38 490.19 1280.29 491.898 1278.19 493.562C1271.71 498.695 1265.88 502.756 1260.19 505.875C1259.51 506.248 1258.86 506.438 1258.19 506.781C1257.9 507.508 1257.55 508.213 1257.12 508.875C1256.6 509.688 1256.04 510.281 1255.44 510.875C1254.83 511.469 1254.19 512.009 1253.41 512.594C1252.38 513.365 1251.09 514.252 1249.5 515.281C1249.29 515.415 1249.06 515.549 1248.84 515.688C1247.3 516.673 1243.88 518.788 1243.94 518.75C1240.3 521.27 1230.87 524.305 1220.84 526.594C1215.85 527.734 1211.24 528.529 1207.47 528.875C1205.14 529.089 1203.07 529.136 1201.22 528.969C1197.9 528.668 1195.12 527.812 1192.62 525.375C1190.94 523.726 1190.11 521.61 1189.84 519.438C1188.86 518.925 1187.91 518.354 1187.03 517.5C1184.51 515.041 1182.92 511.522 1184.22 507.094C1184.37 506.592 1184.62 506.271 1184.81 505.844C1184.88 503.296 1185.73 500.75 1187.91 498.562C1190.26 496.193 1192.89 495.093 1197.03 493.969C1199.24 493.371 1201.61 492.874 1205.41 492.125C1205.7 492.068 1210.41 491.135 1211.19 490.969C1211.44 490.914 1211.42 490.896 1211.66 490.844C1211.37 488.72 1211.62 486.547 1212.66 484.531C1210.04 482.695 1208.29 479.823 1208.12 476.406L399.812 476.406C399.085 476.94 398.387 477.513 397.5 477.844C395.048 478.759 392.732 479.368 390.344 480.156C389.007 482.62 386.76 484.558 383.812 485.219C383.789 485.224 383.774 485.245 383.75 485.25C383.086 485.653 382.085 486.264 382.156 486.219C382.145 486.226 380.88 487.045 380.75 487.125C379.564 487.861 378.634 488.366 377.344 488.781C376.566 489.031 375.757 489.212 374.812 489.281C374.355 489.315 373.873 489.213 373.406 489.188C373.34 489.212 373.317 489.225 373.25 489.25C365.616 492.128 359.445 495.99 351.281 502.594C349.961 503.661 348.588 504.792 346.812 506.281C346.205 506.791 342.998 509.498 342.062 510.281C339.537 512.397 335.39 514.78 330.625 517.094C330.33 517.528 330.142 517.986 329.781 518.406C327.33 521.259 324.174 523.032 320.312 524.281C317.983 525.034 315.856 525.495 312.156 526.156C311.928 526.197 311.719 526.235 311.281 526.312C308.785 526.756 307.626 526.965 306.531 527.25C305.983 527.392 305.534 527.534 305.219 527.656C305.054 527.72 305.007 527.755 305.062 527.719C301.634 529.934 297.364 529.757 294.156 527.656C293.543 527.684 292.844 527.841 292.25 527.844C284.213 527.879 277.576 525.615 273.469 519.781C271.856 517.49 270.597 513.54 270 509.906C269.623 507.609 269.505 505.481 269.844 503.375C270.617 498.566 273.635 494.266 279.5 493.406C284.289 492.704 287.665 493.11 294.5 494.531C297.403 495.135 298.58 495.35 299.875 495.469C300.851 495.558 301.599 495.484 302.312 495.375C301.48 494.411 300.624 493.469 300.031 492.406C299.251 491.008 298.712 489.517 298.531 487.719C298.386 486.27 298.592 484.802 299.031 483.406C297.782 482.616 296.649 481.621 295.688 480.125C294.963 478.998 294.528 477.722 294.281 476.406L234.844 476.406C234.004 477.828 232.861 479.013 231.531 479.906C230.871 480.35 230.266 480.661 229.625 480.938C229.454 481.011 229.3 481.069 229.156 481.125C225.81 483.382 222.231 485.591 217 488.5C216.008 489.052 210.464 492.1 208.969 492.938C204.365 495.516 200.885 497.924 198.094 500.188C197.362 501.675 196.395 502.968 195.25 504.094C194.044 505.279 192.661 506.304 191.062 507.031C190.12 507.461 189.109 507.711 188.031 507.875C186.894 509.016 185.861 509.928 184.594 510.719C184.523 510.763 184.265 510.89 184.188 510.938C183.608 512.668 182.706 514.323 181.188 515.562C179.703 516.775 175.261 519.466 171.844 521.156C169.206 522.461 166.926 523.35 164.688 523.781C163.691 523.973 162.705 524.014 161.719 524C161.339 524.244 160.893 524.528 160.562 524.719C160.036 525.023 159.539 525.259 158.969 525.5C156.5 526.543 154.742 526.99 152.281 526.125C152.152 526.156 152.04 526.188 151.906 526.219C151.284 526.363 149.518 526.759 149.125 526.844C149.069 526.864 148.977 526.903 148.969 526.906C148.226 527.172 147.627 527.373 146.938 527.594C146.13 527.852 145.34 528.085 144.562 528.281C142.249 528.864 140.216 529.155 138.031 528.938C134.728 528.609 131.776 526.904 129.844 524.281C126.29 522.792 122.817 520.13 120.438 517.062C115.193 510.302 115.118 501.188 123.188 495.656C127.426 492.751 132.202 492.008 137.125 492.906C140.028 493.436 141.983 494.166 146.25 496C146.358 496.046 146.362 496.048 146.469 496.094C148.263 496.864 148.737 496.938 149.531 497.188C149.55 496.635 149.637 496.24 149.594 495.562C149.429 493.002 148.773 490.229 148.125 488.469C145.068 487.155 142.675 484.499 142.125 480.969C142.213 481.533 142.339 482.006 142.5 482.438C142.563 482.608 142.603 482.728 142.656 482.844C142.391 482.368 142.302 482.198 142.125 481.844C141.778 481.149 141.489 480.462 141.25 479.656C140.938 478.606 140.826 477.506 140.812 476.406L81.7812 476.406ZM1255.09 484.156C1255 484.687 1254.95 485.22 1254.78 485.719C1255.56 485.221 1256.31 484.831 1257.12 484.281C1256.44 484.253 1255.8 484.181 1255.09 484.156ZM0 503.812L0 504.875C0.267537 504.721 0.489694 504.56 0.75 504.406C0.458612 504.251 0.271881 503.99 0 503.812Z" fill="#339966" fill-opacity="0.735432" fill-rule="nonzero" opacity="1" stroke="none"/>
<path d="M724.123 0.0644533C719.953-0.377692 715.972 1.47393 713.691 5.21484C711.655 8.55521 711.611 11.9906 711.607 176.891C711.605 269.436 711.245 345.137 710.805 345.113C708.353 344.981 684.326 311.834 672.951 292.891C633.347 226.934 612.78 153.649 604.445 48.7793C601.994 17.9429 601.414 20.9534 610.553 17.1211C616.555 14.6039 618.348 13.3442 618.619 11.4609C619.018 8.6918 617.146 5.95703 614.852 5.95703C613.994 5.95703 589.316 16.2774 560.014 28.8906C530.711 41.5039 506.271 51.8242 505.703 51.8242C505.071 51.8242 504.67 43.4383 504.668 30.2246C504.664 10.6968 504.463 8.2964 502.584 5.21484C498.326-1.76868 487.301-1.58302 482.621 5.55078C480.915 8.15124 480.629 11.4025 480.332 31.5586L479.992 54.5938L464.338 60.2598C412.139 79.1523 358.558 107.949 313.738 141.199C234.153 200.241 166.262 279.445 113.688 374.588C109.179 382.747 105.347 389.583 105.172 389.777C104.997 389.972 91.8599 386.851 75.9785 382.844C53.3614 377.137 46.6953 375.812 45.2207 376.732C42.8706 378.2 42.2478 381.78 44.0859 383.258C44.8476 383.87 64.927 389.438 88.7051 395.631C133.857 407.39 140.887 409.442 144.791 412C147.995 414.1 150.537 419.792 150.537 424.865L150.537 429.049L166.805 432.514C194.88 438.492 253.028 451.772 263.604 454.621C284.595 460.275 302.102 468.501 316.404 479.428C323.149 484.581 335.156 496.397 340.486 503.127L343.65 507.123L334.184 513.455C317.924 524.331 309.509 527.488 296.672 527.525C284.977 527.559 277.316 524.226 272.43 516.975C267.981 510.373 269.946 500.497 276.369 497.176C282.161 494.181 290.354 495.94 298.881 502.012L302.004 504.236L302.004 497.42C302.004 484.62 296.564 475.462 286.078 470.611C282.05 468.748 279.167 468.357 269.471 468.357C257.041 468.357 252.048 469.371 239.785 474.391C229.393 478.644 221.283 483.751 205.471 495.998C186.893 510.387 170.529 521.207 162.775 524.229C153.947 527.669 140.013 528.485 132.531 526C120.065 521.859 114.754 512.656 118.986 502.527C122.204 494.826 130.654 493.614 141.545 499.291C145.484 501.344 148.941 503.023 149.227 503.023C149.512 503.023 149.527 499.248 149.26 494.633C148.881 488.096 148.159 485.191 145.99 481.49C137.131 466.373 113.561 463.52 87.2324 474.377C77.0172 478.589 67.3077 484.788 50.791 497.639C27.0661 516.098 13.0922 524.612 4.06836 526.109L3.15442e-07 526.785L0.72461 531.172C1.12283 533.584 1.59844 535.721 1.78125 535.922C2.43393 536.639 14.5429 532.654 19.8262 529.982C27.6096 526.047 40.5573 517.226 54.0039 506.697C69.3644 494.67 76.3237 489.939 85.1465 485.525C99.5613 478.314 115.12 475.376 126.334 477.75C129.903 478.506 138.809 485.027 138.803 486.881C138.802 487.253 134.802 487.557 129.916 487.557C121.823 487.557 120.684 487.824 117.109 490.553C111.519 494.819 108.595 501.074 108.535 508.891C108.436 521.973 117.985 532.231 133.471 535.674C140.83 537.31 143.94 537.375 152.904 536.078C167.503 533.967 181.874 525.872 210.805 503.465C218.431 497.558 227.55 491.009 231.07 488.91C247.384 479.185 265.547 474.946 278.867 477.754C282.437 478.507 291.342 485.024 291.336 486.881C291.335 487.253 287.335 487.557 282.449 487.557C274.357 487.557 273.217 487.824 269.643 490.553C258.929 498.73 257.745 514.344 267.037 524.9C275.322 534.313 288.491 538.323 304.184 536.211C318.203 534.324 330.835 527.98 350.988 512.701C355.434 509.331 364.112 502.764 370.271 498.109C398.073 477.101 426.502 470.779 439.971 482.607C444.524 486.606 444.064 487.583 437.82 487.187C426.452 486.468 420.352 489.43 416.119 497.727C411.257 507.257 412.49 516.857 419.615 524.951C430 536.749 449.139 540.11 468.418 533.521C480.512 529.388 488.863 523.897 524.09 496.924C548.115 478.528 576.493 471.663 590.096 480.953C591.978 482.239 594.149 484.25 594.918 485.424C596.266 487.481 596.104 487.544 590.412 487.187C587.165 486.984 582.836 487.13 580.793 487.514C575.345 488.536 569.146 494.64 567.002 501.096C559.971 522.263 580.786 539.871 608.596 536.281C625.884 534.049 634.446 529.14 674.805 498.32C686.668 489.261 701.087 481.663 711.604 478.932C720.899 476.517 733.302 476.492 738.789 478.877C743.128 480.763 747.871 484.557 747.871 486.143C747.871 486.627 744.736 487.023 740.904 487.023C732.403 487.023 728.088 488.711 723.646 493.77C717.874 500.344 716.384 510.553 720.027 518.576C725.58 530.802 741.649 538.414 758.17 536.645C777.074 534.62 787.54 528.833 826.805 498.687C839.076 489.266 853.37 481.69 864.139 478.898C873.399 476.498 885.824 476.488 891.322 478.877C895.661 480.763 900.404 484.557 900.404 486.143C900.404 486.627 897.27 487.023 893.438 487.023C884.936 487.023 880.622 488.711 876.18 493.77C867.136 504.07 869.429 520.673 881.078 529.223C888.53 534.692 895.095 536.588 906.271 536.5C925.446 536.349 939.64 529.501 969.631 505.93C992.735 487.771 1005.98 480.72 1022.5 477.779C1031.57 476.165 1038.17 476.586 1044.39 479.176C1048.25 480.782 1052.94 484.607 1052.94 486.143C1052.94 486.627 1049.55 487.023 1045.42 487.023C1037.21 487.023 1033.78 488.306 1029.26 493.062C1019.68 503.146 1021.63 520.155 1033.39 529.135C1040.49 534.557 1047.51 536.589 1058.8 536.5C1078.54 536.345 1090.25 530.545 1124.81 503.822C1149.64 484.625 1165.8 477.204 1183.09 477.045C1190.73 476.974 1193.02 477.382 1197.42 479.594C1200.3 481.041 1203.35 483.303 1204.2 484.623L1205.73 487.023L1197.96 487.023C1187.62 487.023 1182.32 489.962 1178.37 497.885C1171.21 512.267 1178.15 527.668 1194.72 534.127C1199.34 535.929 1202.94 536.447 1210.8 536.447C1230.91 536.449 1242.62 530.728 1276.9 504.131C1285.39 497.548 1295.8 490.254 1300.05 487.924L1307.77 483.686L1306.02 480.021C1305.06 478.006 1303.75 476.357 1303.12 476.357C1300.26 476.357 1284.61 486.511 1270.18 497.725C1251.9 511.933 1237.65 521.198 1229.11 524.418C1221.5 527.29 1208.62 528.271 1201.37 526.531C1185.99 522.842 1179.31 507.796 1189.01 498.693C1191.3 496.539 1192.85 496.096 1197.98 496.125C1203.06 496.154 1205.16 496.775 1209.69 499.592C1212.73 501.479 1215.66 503.023 1216.22 503.023C1217.55 503.023 1216.25 488.525 1214.53 484.279C1212.38 478.957 1206.94 473.604 1200.95 470.893C1196.06 468.686 1193.72 468.357 1182.8 468.357C1175.91 468.357 1170.39 468.116 1170.54 467.822C1170.68 467.528 1172.43 462.848 1174.42 457.422L1178.03 447.557L1195.52 447.557C1212.68 447.557 1213.02 447.511 1213.9 445.156C1214.39 443.836 1214.44 441.796 1214.01 440.623C1213.23 438.512 1212.01 438.485 1096.76 437.957L980.289 437.424L1083.98 391.527C1141.01 366.285 1188.2 344.805 1188.83 343.795C1190.33 341.426 1188.54 338.356 1185.39 337.887C1184.14 337.701 1180.19 338.865 1176.61 340.473C1172.66 342.246 1169.81 342.983 1169.38 342.348C1168.99 341.771 1166 337.967 1162.74 333.895C1112.85 271.585 1082.1 191.094 1070.07 91.291C1067.83 72.6572 1064.88 38.8373 1064.51 27.3711L1064.29 20.5176L1071.96 17.0293C1076.17 15.1106 1079.94 12.728 1080.32 11.7363C1081.21 9.41171 1079.42 6.57139 1076.83 6.20508C1075.71 6.04757 1050.84 16.247 1021.55 28.8711C992.261 41.4952 967.902 51.8242 967.418 51.8242C966.934 51.8242 966.53 42.3444 966.521 30.7578C966.511 16.1616 966.102 8.90333 965.189 7.12695C961.311-0.420263 951.721-2.11769 945.893 3.71094L942.537 7.06445L942.004 176.377L941.471 345.691L932.092 333.957C887.956 278.745 858.864 209.86 844.471 126.49C839.878 99.8857 837.245 76.1267 833.686 29.1641L833.059 20.9023L840.965 17.3008C845.313 15.3192 849.184 12.8804 849.566 11.8828C850.526 9.38164 848.488 5.95703 846.039 5.95703C844.926 5.95703 820.649 16.0228 792.09 28.3242C763.531 40.6257 739.257 50.9768 738.15 51.3281C736.226 51.939 736.138 51.0702 736.137 31.3633C736.135 7.63954 735.38 4.7445 728.301 1.28711C726.924 0.614839 725.513 0.211837 724.123 0.0644533ZM475.514 68.0684C475.798 68.1018 475.286 68.8241 473.932 70.6172C408.636 157.088 362.106 255.071 319.498 395.824C316.301 406.384 313.46 415.503 313.184 416.09C310.887 420.971 317.494 370.997 322.35 346.758C342.25 247.411 386.536 155.893 443.338 96.7324C454.219 85.3994 470.359 70.6979 474.148 68.6699C474.885 68.2759 475.343 68.0483 475.514 68.0684ZM453.523 72.6094C455.029 72.2055 452.446 74.2397 441.738 82.7539C341.419 162.524 267.674 266.482 227.682 384.506C223.832 395.866 220.875 402.885 219.441 404.066C216.391 406.58 215.877 406.455 213.561 402.646C211.557 399.352 211.562 399.28 214.693 387.447C251.319 249.053 320.379 150.806 425.361 87.7422C428.967 85.576 432.167 83.1552 432.471 82.3633C432.775 81.5714 436.063 79.6941 439.779 78.1914C443.496 76.6887 448.458 74.6565 450.805 73.6758C452.066 73.1486 453.022 72.744 453.523 72.6094ZM479.99 76.8906L480.064 257.424L480.139 437.957L445.047 437.957L409.957 437.957L409.047 423.291C407.796 403.116 408.097 358.615 409.615 339.291C416.575 250.716 439.681 161.812 475.18 87.0234L479.99 76.8906ZM710.986 352.623C711.327 352.623 711.604 371.824 711.604 395.291L711.604 437.957L614.805 437.916C533.21 437.881 518.508 437.65 521.205 436.451C591.245 405.313 710.531 352.623 710.986 352.623ZM940.615 352.928C941.741 352.496 942.004 360.481 942.004 395.176L942.004 437.957L845.738 437.924C790.84 437.905 750.158 437.494 751.07 436.967C752.519 436.129 937.339 354.185 940.615 352.928ZM155.361 377.191C160.829 377.24 165.996 377.747 169.689 378.73C185.75 383.004 200.671 395.017 208.479 409.957C210.701 414.21 212.374 417.651 212.195 417.604C212.017 417.556 188.659 411.585 160.289 404.334C131.919 397.083 108.512 390.954 108.273 390.715C107.353 389.794 127.519 381.221 135.264 379.24C140.801 377.824 148.331 377.129 155.361 377.191ZM259.777 399.264C277.582 399.69 293.393 409.822 303.936 428.83C306.464 433.389 308.383 437.212 308.201 437.324C307.499 437.759 291.437 435.76 282.805 434.164C274.279 432.588 219.066 419.428 215.611 418.148C213.644 417.42 216.219 415.249 226.281 409.156C237.694 402.245 249.095 399.008 259.777 399.264ZM359.799 408.187C364.446 408.226 366.933 408.819 371.596 410.523C382.164 414.386 389.658 419.292 399.992 429.109L409.205 437.861L359.266 437.908L309.326 437.957L311.732 434.49C317.134 426.711 329.416 415.82 336.789 412.27C343.172 409.196 345.47 408.675 354.271 408.312C356.462 408.222 358.25 408.175 359.799 408.187Z" fill="#000000" fill-rule="nonzero" opacity="1" stroke="none"/>
<g opacity="1">
<path d="M959.071 225.087C959.071 80.3901 958.717 11.5562 957.967 10.1537C956.53 7.46897 952.012 7.46897 950.575 10.1537C949.825 11.5562 949.471 80.3901 949.471 225.087L949.471 437.957L954.271 437.957L959.071 437.957L959.071 225.087Z" fill="#ff6600" fill-rule="nonzero" opacity="1" stroke="none"/>
<path d="M727.34 223.291L727.071 8.62387L724.612 8.27533C718.688 7.43554 719.071-7.4777 719.071 224.221L719.071 437.957L723.34 437.957L727.61 437.957L727.34 223.291Z" fill="#ff6600" fill-rule="nonzero" opacity="1" stroke="none"/>
<path d="M497.204 224.221C497.204-7.4777 497.587 7.43554 491.663 8.27533L489.204 8.62387L488.935 223.291L488.666 437.957L492.935 437.957L497.204 437.957L497.204 224.221Z" fill="#ff6600" fill-rule="nonzero" opacity="1" stroke="none"/>
</g>
<g opacity="1">
<path d="M209.151 377.957C239.42 266.152 294.986 176.526 371.966 115.342C377.78 110.721 383.018 106.475 383.604 105.907C386.697 102.911 348.478 126.327 334.538 135.969C266.394 183.099 206.433 244.875 156.44 319.458C145.635 335.578 122.804 372.788 122.804 374.279C122.804 374.565 125.763 373.879 129.378 372.754C132.994 371.629 140.314 370.16 145.645 369.491C164.713 367.097 185.698 373.493 198.765 385.682C201.867 388.575 204.676 390.961 205.009 390.983C205.342 391.006 207.206 385.144 209.151 377.957Z" fill="#ffe680" fill-rule="nonzero" opacity="1" stroke="none"/>
<path d="M305.614 405.691C308.786 366.719 319.562 316.169 333.98 272.624C353.561 213.49 377.913 166.707 414.768 117.424C418.324 112.669 417.602 113.149 408.114 121.85C331.188 192.393 272.034 282.142 236.812 381.752C233.948 389.852 231.604 396.644 231.604 396.845C231.604 397.046 234.959 396.044 239.058 394.618C260.18 387.272 281.93 392.146 297.204 407.646C300.724 411.218 303.895 414.219 304.251 414.315C304.607 414.412 305.22 410.531 305.614 405.691Z" fill="#ffe680" fill-rule="nonzero" opacity="1" stroke="none"/>
<path d="M400.704 383.823C400.738 348.603 401.645 333.378 405.583 301.957C413.047 242.415 428.839 179.64 449.725 126.491C453.068 117.984 456.054 110.304 456.361 109.424C457.467 106.249 444.841 125.553 433.948 143.692C394.844 208.808 362.95 283.184 332.469 380.336C327.447 396.344 323.338 409.823 323.338 410.289C323.338 410.754 326.098 409.473 329.471 407.442C345.608 397.724 363.978 397.371 382.03 406.431C387.431 409.141 400.671 417.883 400.671 418.739C400.671 418.749 400.686 403.036 400.704 383.823Z" fill="#ffe680" fill-rule="nonzero" opacity="1" stroke="none"/>
<path d="M834.271 389.998C886.191 366.994 929.031 347.83 929.471 347.411C929.911 346.993 926.551 341.87 922.004 336.026C864.041 261.528 833.136 166.069 825.071 36.6239C824.617 29.3387 823.928 25.1826 823.181 25.2269C822.534 25.2652 802.804 33.5639 779.338 43.6685L736.671 62.0404L736.401 247.457C736.145 423.721 736.224 432.848 738.001 432.349C739.03 432.06 782.351 413.002 834.271 389.998Z" fill="#ffe680" fill-rule="nonzero" opacity="1" stroke="none"/>
<path d="M1063.62 390.537C1116.1 367.302 1159.45 347.869 1159.97 347.351C1160.51 346.808 1158.47 343.328 1155.13 339.117C1125.25 301.425 1099.12 251.33 1084.01 202.757C1068.78 153.761 1061.64 111.25 1055.5 32.8905C1055.16 28.6372 1054.56 25.1572 1054.16 25.1572C1053.76 25.1572 1034 33.4896 1010.25 43.6735L967.071 62.1899L966.801 248.005C966.653 350.203 966.91 433.587 967.371 433.301C967.833 433.016 1011.14 413.772 1063.62 390.537Z" fill="#ffe680" fill-rule="nonzero" opacity="1" stroke="none"/>
<path d="M574.004 403.01C607.151 388.33 647.471 370.466 663.604 363.312C679.738 356.159 694.523 349.641 696.46 348.829L699.982 347.353L691.6 336.388C655.233 288.82 630.434 236.751 614.725 174.979C604.641 135.326 597.019 83.9501 594.668 39.7851C594.268 32.2837 593.548 25.9027 593.066 25.605C592.584 25.3074 572.618 33.4496 548.697 43.6989L505.204 62.3341L504.935 247.976L504.665 433.617L509.201 431.659C511.696 430.581 540.858 417.689 574.004 403.01Z" fill="#ffe680" fill-rule="nonzero" opacity="1" stroke="none"/>
</g>
<path d="M881.604 285.51C881.535 287.171 882.257 290.555 875.962 301.06C868.935 312.79 858.097 322.539 847.47 330.434C841.061 335.194 834.493 339.058 827.673 342.478C825.899 341.899 823.714 341.138 821.273 340.182C821.256 340.179 821.242 340.171 821.225 340.165C822.919 339.324 824.75 338.382 826.752 337.316C846.38 326.871 850.017 320.574 849.846 320.403C849.674 320.232 844.74 325.981 827.821 335.833C825.357 337.267 822.833 338.568 820.261 339.754C818.355 338.967 816.487 338.109 814.893 337.299C823.11 333.736 831.866 329.301 839.042 324.558C850.082 317.26 860.478 308.706 868.721 299.1C876.253 290.326 879.348 285.808 879.824 284.917C880.569 283.518 881.767 281.589 881.604 285.51ZM876.596 295.164C876.362 295.085 874.699 299.437 868.761 306.715C862.837 313.98 857.521 318.346 857.76 318.583C857.997 318.82 862.538 315.6 869.474 306.952C875.714 299.174 876.835 295.242 876.596 295.164ZM832.85 300.737C831.98 300.974 831.549 299.913 831.484 299.04C831.324 296.983 831.675 295.753 831.504 294.655C831.312 293.412 831.991 291.399 830.443 292.067C829.564 292.445 830.294 293.423 830.611 294.452C830.927 295.48 830.848 298.943 830.848 299.673C830.848 300.94 831.561 301.681 833.46 302.363C835.645 303.15 833.908 308.267 831.8 308.852C829.61 309.462 828.381 307.95 826.812 308.218C824.042 308.695 824.596 311.384 824.042 312.254C823.489 313.124 823.489 313.124 822.539 314.074C821.841 314.773 821.384 315.332 820.894 315.774C820.971 315.839 821.025 315.953 821.039 316.144C821.099 316.977 821.766 317.616 821.766 318.446C821.766 319.276 821.501 319.573 820.432 319.809C819.365 320.046 818.894 319.633 818.834 319.276C818.775 318.92 818.923 317.622 819.097 316.929C819.151 316.701 819.231 316.561 819.314 316.467C818.447 316.624 817.363 316.686 816.604 316.686L816.519 316.686C816.701 316.809 816.901 317.017 817.026 317.399C817.329 318.301 817.374 318.979 817.434 319.513C817.494 320.046 816.781 320.226 816.068 320.286C815.355 320.346 814.525 320.109 814.405 319.809C814.288 319.513 814.482 318.278 814.605 317.636C814.679 317.245 815.075 316.909 815.383 316.703C814.579 316.721 813.726 316.749 812.854 316.763C813.085 317.012 813.313 317.32 813.367 317.616C813.487 318.255 813.752 319.219 813.695 319.633C813.632 320.046 813.455 320.166 812.329 320.226C811.199 320.286 810.82 320.109 810.7 319.872C810.58 319.633 810.786 318.209 810.928 317.622C811.005 317.308 811.239 316.997 811.456 316.766C810.752 316.761 810.05 316.732 809.368 316.675C809.537 317.14 810.301 317.936 810.098 319.216C809.984 319.926 809.651 320.223 808.11 320.226C807.221 320.229 806.81 319.633 806.807 319.219C806.801 318.081 807.283 317.285 807.537 316.472C806.682 316.375 806.162 316.307 805.74 316.13C805.8 316.515 806.028 317.528 806.154 318.563C806.234 319.216 805.917 319.573 805.144 319.573C804.374 319.573 803.898 319.159 803.898 318.803C803.898 317.853 805.293 316.087 805.407 316.01C805.418 316.002 805.432 315.99 805.447 315.982C805.367 315.933 805.284 315.876 805.204 315.814C804.491 315.26 803.621 314.473 803.159 312.465C802.694 310.457 802.86 309.234 801.314 308.307C799.771 307.38 796.987 309.596 795.595 309.451C794.047 309.288 792.087 306.191 791.962 304.73C791.813 303.025 793.479 303.818 794.426 301.659C795.028 300.284 794.429 298.564 794.429 294.704C794.429 290.843 795.758 288.877 796.596 286.983C797.207 285.604 796.36 284.578 797.438 280.975C798.356 277.897 799.186 276.752 799.186 276.752C799.186 276.752 797.706 277.971 796.833 280.843C796.063 283.384 796.3 284.666 795.681 286.673C795.062 288.681 794.129 290.004 793.664 293.092C793.202 296.181 793.978 299.947 793.202 301.194C792.678 302.035 790.944 301.125 790.718 298.028C790.524 295.367 790.179 290.109 790.641 287.02C791.106 283.931 791.38 285.08 793.014 279.401C794.939 272.707 803.336 268.632 813.361 268.495C822.12 268.376 825.32 271.213 828.181 273.914C831.164 276.732 833.246 280.673 833.879 283.205C834.513 285.737 835.066 286.788 835.462 288.925C835.859 291.061 835.645 294.164 835.257 295.707C834.829 297.423 833.985 300.426 832.85 300.737ZM808.826 293.938C807.697 292.157 804.668 291.849 802.355 291.742C799.802 291.623 798.405 292.409 798.139 294.353C797.926 295.921 798.199 298.27 798.733 299.99C799.198 301.487 801.049 303.492 802.652 303.253C803.941 303.065 806.687 301.008 808.29 299.16C809.251 298.053 809.368 294.795 808.826 293.938ZM812.389 298.744C811.793 298.786 810.903 300.76 810.489 303.253C810.215 304.896 809.126 307.189 809.36 308.595C809.517 309.539 810.392 309.673 810.903 308.655C811.319 307.822 811.556 307.052 812.149 307.052C812.742 307.052 814.054 310.529 814.822 310.435C815.709 310.326 816.798 308.951 816.661 307.229C816.541 305.746 815.948 304.263 815.058 302.72C814.168 301.177 812.976 298.704 812.389 298.744ZM826.812 293.938C825.922 292.75 824.379 291.742 821.35 291.92C818.846 292.067 816.353 293.078 816.128 294.768C815.891 296.548 816.396 297.477 817.374 298.684C818.384 299.93 821.233 302.363 823.073 302.483C824.912 302.603 826.515 302.186 826.752 300.347C826.992 298.507 827.702 295.124 826.812 293.938ZM822.716 322.838C824.142 321.412 823.906 318.979 824.499 315.893C825.092 312.807 826.159 311.857 826.872 310.791C827.585 309.721 829.285 309.867 829.484 310.314C829.721 310.851 828.997 314.453 828.295 316.783C827.228 320.345 827.168 321.769 827.108 323.608C827.06 325.18 824.556 326.398 823.25 327.644C821.943 328.887 820.757 331.203 819.154 331.677C817.551 332.153 815.295 331.323 812.862 331.38C810.429 331.44 807.994 332.033 806.69 331.557C805.384 331.084 803.898 328.887 802.235 327.404C800.575 325.921 798.616 325.031 798.023 323.608C797.429 322.182 798.023 320.462 797.903 318.266C797.786 316.07 797.193 314.707 796.596 313.4C796.003 312.094 796.4 311.153 797.369 310.791C798.793 310.257 799.802 311.444 800.515 313.697C801.26 316.05 801.919 317.433 802.058 319.396C802.238 321.885 802.594 322.362 803.424 323.252C803.898 323.759 804.771 324.062 805.686 324.315C805.518 323.871 805.367 323.292 805.444 322.242C805.481 321.706 805.917 321.529 806.867 321.469C807.817 321.412 808.447 321.649 808.47 322.125C808.55 323.688 808.168 324.358 807.894 324.883C808.407 324.963 809.16 325.009 810.027 325.034C809.705 324.39 809.363 323.648 809.36 322.419C809.36 321.717 809.896 321.826 810.786 321.769C811.676 321.709 812.591 321.697 812.625 322.302C812.694 323.523 812.277 324.315 811.895 325.06C812.537 325.063 813.187 325.057 813.809 325.048C813.549 324.244 813.321 323.206 813.455 322.302C813.51 321.943 814.288 321.826 815.001 321.769C815.711 321.709 816.578 322.059 816.604 322.479C816.655 323.403 816.376 324.298 816.054 325.003C816.481 324.991 816.852 324.98 817.135 324.971C817.406 324.963 817.674 324.946 817.945 324.914C817.639 324.338 817.34 323.608 817.374 323.015C817.4 322.536 818.444 321.529 819.274 321.589C819.935 321.637 820.646 321.777 820.683 322.134C820.76 322.884 820.523 323.702 820.235 324.384C821.165 324.036 822.023 323.525 822.716 322.838ZM841.526 347.583C841.526 347.583 841.617 348.812 838.845 349.836C837.214 350.441 836.903 350.758 828.212 347.64C825.594 346.702 811.331 342.623 799.757 335.832C782.963 325.981 778.183 320.174 777.898 320.402C777.613 320.631 781.338 326.871 800.815 337.315C816.233 345.581 821.612 346.514 827.976 348.767C835.779 351.533 836.578 351.59 837.638 352.862C838.796 354.249 838.346 357.255 838.346 357.255C838.346 357.255 824.196 353.236 813.601 348.767C801.762 343.778 790.801 338.325 780.254 330.433C769.708 322.539 758.95 312.79 751.974 301.059C745.729 290.555 746.446 287.171 746.377 285.51C746.215 281.589 747.403 283.517 748.145 284.917C748.616 285.807 751.687 290.325 759.162 299.1C767.345 308.706 777.661 317.259 788.619 324.558C798.681 331.258 809.639 336.135 820.209 340.433C831.908 345.193 841.525 347.583 841.525 347.583L841.526 347.583ZM760.386 350.846C762.882 350.846 764.423 352.802 764.423 355.175C764.423 359.154 760.878 358.943 760.802 359.628C760.726 360.312 761.837 360.794 763.592 360.517C764.784 360.329 765.867 358.504 766.323 359.034C766.779 359.565 763.835 363.187 761.04 363.187C758.012 363.187 755.103 360.577 755.103 356.838C755.103 352.566 757.418 350.846 760.386 350.846ZM766.797 350.786C768.863 350.786 769.164 351.508 769.766 353.456C770.327 355.278 771.572 355.726 771.843 355.712C772.114 355.697 771.085 354.905 770.537 353.396C770.062 352.092 769.37 350.549 772.021 350.549C774.576 350.549 774.564 351.639 774.929 352.626C775.525 354.226 777.122 355.429 777.365 355.415C777.604 355.401 776.118 353.872 775.762 352.506C775.488 351.459 775.519 350.606 777.008 350.606C778.254 350.606 779.025 352.032 780.094 353.932C781.027 355.589 781.979 359.342 780.154 359.508C777.456 359.756 769.42 359.993 768.341 359.331C766.433 358.159 765.729 356.661 765.195 354.465C764.545 351.796 764.618 350.786 766.797 350.786ZM775.998 346.454C775.702 346.81 775.642 348.767 773.327 348.767C771.012 348.767 769.35 347.107 769.35 344.141C769.35 341.174 771.428 339.629 774.217 339.629C777.008 339.629 779.264 340.875 781.46 343.428C783.636 345.957 784.401 349.023 785.496 349.956C787.082 351.302 789.238 350.951 789.389 351.257C789.543 351.559 787.396 352.566 787.43 355.438C787.458 357.933 787.632 360.637 788.405 361.944C789.178 363.247 790.068 364.197 790.365 364.137C790.661 364.077 790.718 362.06 792.621 362.06C794.697 362.06 795.766 363.424 795.766 366.273C795.766 369.122 793.51 369.895 790.601 369.895C787.695 369.895 785.199 368.116 784.25 364.91C783.3 361.704 782.41 357.372 781.224 354.229C780.034 351.083 777.958 347.583 777.365 346.987C776.771 346.394 776.295 346.097 775.998 346.454ZM789.204 349.913C786.232 349.731 785.961 347.583 785.961 347.583C785.961 347.583 791.699 345.889 799.68 343.14C801.639 344.249 802.677 344.802 804.791 345.701C801.859 346.69 800.033 347.355 799.149 347.64C792.281 349.865 791.009 350.022 789.204 349.913ZM812.631 349.203C801.867 353.607 788.939 357.255 788.939 357.255C788.939 357.255 788.488 354.251 789.652 352.862C790.898 351.379 792.977 351.026 799.386 348.767C801.776 347.928 803.744 347.272 806.431 346.351C809.383 347.846 810.794 348.439 812.631 349.203ZM834.692 362.06C836.58 362.06 836.635 364.077 836.931 364.137C837.225 364.197 838.109 363.247 838.876 361.944C839.641 360.637 840.054 357.665 839.937 355.173C839.82 352.68 838.306 351.995 838.423 351.542C838.534 351.086 840.328 350.82 841.706 349.671C843.174 348.444 843.608 345.957 845.77 343.428C847.949 340.875 850.188 339.629 852.957 339.629C855.724 339.629 857.789 341.174 857.789 344.141C857.789 347.107 856.137 348.767 853.839 348.767C851.543 348.767 851.483 346.81 851.189 346.454C850.895 346.097 850.422 346.394 849.834 346.987C849.244 347.583 847.185 351.083 846.004 354.229C844.826 357.372 843.942 361.704 842.998 364.91C842.056 368.113 839.581 369.895 836.694 369.895C833.808 369.895 831.569 369.122 831.569 366.273C831.569 363.424 832.63 362.06 834.692 362.06ZM850.188 350.606C851.665 350.606 851.697 351.459 851.426 352.506C851.072 353.872 849.834 355.415 849.834 355.415C849.834 355.415 851.66 354.226 852.25 352.626C852.612 351.639 852.601 350.549 855.136 350.549C857.769 350.549 857.081 352.092 856.611 353.396C856.066 354.905 855.313 355.712 855.313 355.712C855.313 355.712 856.816 355.278 857.375 353.456C857.971 351.508 858.271 350.786 860.321 350.786C862.483 350.786 862.557 351.796 861.913 354.465C861.38 356.661 860.681 358.159 858.787 359.331C857.717 359.993 849.74 359.756 847.065 359.508C845.254 359.342 846.201 355.589 847.125 353.932C848.183 352.032 848.95 350.606 850.188 350.606ZM863.502 360.517C865.261 360.663 866.328 360.141 866.271 359.628C866.214 359.114 862.677 359.154 862.677 355.175C862.677 352.802 864.206 350.846 866.684 350.846C869.631 350.846 871.927 352.566 871.927 356.838C871.927 360.577 869.04 363.264 866.037 363.187C861.551 363.076 860.222 359.491 860.792 359.034C861.362 358.578 861.921 360.389 863.502 360.517Z" fill="#000000" fill-rule="nonzero" opacity="1" stroke="none"/>
</g>
</svg>
